STARTFONT 2.1
FONT -Fondu--Medium-R-Normal--11-110-75-75-P-60-MacRoman-1
SIZE 11 75 75
FONTBOUNDINGBOX 8 11 0 -2
COMMENT Created by Fondu from a mac NFNT/FONT resource
STARTPROPERTIES 17
FOUNDRY "Fondu"
FAMILY_NAME ""
WEIGHT_NAME "Medium"
SLANT "R"
SETWIDTH_NAME "Normal"
ADD_STYLE_NAME ""
PIXEL_SIZE 11
POINT_SIZE 110
RESOLUTION_X 75
RESOLUTION_Y 75
SPACING "P"
AVERAGE_WIDTH 60
CHARSET_REGISTRY "MacRoman"
CHARSET_ENCODING "1"
FONT_ASCENT 9
FONT_DESCENT 2
FACE_NAME "nameless"
ENDPROPERTIES
CHARS 223
STARTCHAR space
ENCODING 32
SWIDTH 545 0
DWIDTH 6 0
BBX 0 0 6 -2
BITMAP
ENDCHAR
STARTCHAR exclam
ENCODING 33
SWIDTH 545 0
DWIDTH 6 0
BBX 1 7 2 0
BITMAP
80
80
80
80
80
00
80
ENDCHAR
STARTCHAR quotedbl
ENCODING 34
SWIDTH 545 0
DWIDTH 6 0
BBX 3 2 1 5
BITMAP
A0
A0
ENDCHAR
STARTCHAR numbersign
ENCODING 35
SWIDTH 545 0
DWIDTH 6 0
BBX 5 7 0 0
BITMAP
50
50
F8
50
F8
50
50
ENDCHAR
STARTCHAR dollar
ENCODING 36
SWIDTH 545 0
DWIDTH 6 0
BBX 5 9 0 -1
BITMAP
20
70
A8
A0
70
28
A8
70
20
ENDCHAR
STARTCHAR percent
ENCODING 37
SWIDTH 545 0
DWIDTH 6 0
BBX 6 8 0 0
BITMAP
40
A4
A8
50
30
68
68
90
ENDCHAR
STARTCHAR ampersand
ENCODING 38
SWIDTH 545 0
DWIDTH 6 0
BBX 6 7 0 0
BITMAP
30
40
20
54
88
98
64
ENDCHAR
STARTCHAR quotesingle
ENCODING 39
SWIDTH 545 0
DWIDTH 6 0
BBX 1 2 2 5
BITMAP
80
80
ENDCHAR
STARTCHAR parenleft
ENCODING 40
SWIDTH 545 0
DWIDTH 6 0
BBX 3 9 1 -2
BITMAP
20
40
80
80
80
80
80
40
20
ENDCHAR
STARTCHAR parenright
ENCODING 41
SWIDTH 545 0
DWIDTH 6 0
BBX 3 9 1 -2
BITMAP
80
40
20
20
20
20
20
40
80
ENDCHAR
STARTCHAR asterisk
ENCODING 42
SWIDTH 545 0
DWIDTH 6 0
BBX 5 5 0 2
BITMAP
20
20
F8
20
50
ENDCHAR
STARTCHAR plus
ENCODING 43
SWIDTH 545 0
DWIDTH 6 0
BBX 5 5 0 0
BITMAP
20
20
F8
20
20
ENDCHAR
STARTCHAR comma
ENCODING 44
SWIDTH 545 0
DWIDTH 6 0
BBX 2 3 2 -2
BITMAP
40
40
80
ENDCHAR
STARTCHAR hyphen
ENCODING 45
SWIDTH 545 0
DWIDTH 6 0
BBX 5 1 0 2
BITMAP
F8
ENDCHAR
STARTCHAR period
ENCODING 46
SWIDTH 545 0
DWIDTH 6 0
BBX 1 1 2 0
BITMAP
80
ENDCHAR
STARTCHAR slash
ENCODING 47
SWIDTH 545 0
DWIDTH 6 0
BBX 4 7 1 0
BITMAP
10
10
20
20
40
40
80
ENDCHAR
STARTCHAR zero
ENCODING 48
SWIDTH 545 0
DWIDTH 6 0
BBX 4 7 1 0
BITMAP
60
90
90
90
90
90
60
ENDCHAR
STARTCHAR one
ENCODING 49
SWIDTH 545 0
DWIDTH 6 0
BBX 3 7 1 0
BITMAP
40
C0
40
40
40
40
E0
ENDCHAR
STARTCHAR two
ENCODING 50
SWIDTH 545 0
DWIDTH 6 0
BBX 5 7 0 0
BITMAP
70
88
88
10
20
48
F8
ENDCHAR
STARTCHAR three
ENCODING 51
SWIDTH 545 0
DWIDTH 6 0
BBX 5 7 0 0
BITMAP
70
88
08
30
08
88
70
ENDCHAR
STARTCHAR four
ENCODING 52
SWIDTH 545 0
DWIDTH 6 0
BBX 5 7 0 0
BITMAP
10
30
50
90
F8
10
38
ENDCHAR
STARTCHAR five
ENCODING 53
SWIDTH 545 0
DWIDTH 6 0
BBX 5 7 0 0
BITMAP
F8
80
F0
08
08
88
70
ENDCHAR
STARTCHAR six
ENCODING 54
SWIDTH 545 0
DWIDTH 6 0
BBX 5 7 0 0
BITMAP
30
40
80
F0
88
88
70
ENDCHAR
STARTCHAR seven
ENCODING 55
SWIDTH 545 0
DWIDTH 6 0
BBX 5 7 0 0
BITMAP
F8
88
08
10
10
20
20
ENDCHAR
STARTCHAR eight
ENCODING 56
SWIDTH 545 0
DWIDTH 6 0
BBX 5 7 0 0
BITMAP
70
88
88
70
88
88
70
ENDCHAR
STARTCHAR nine
ENCODING 57
SWIDTH 545 0
DWIDTH 6 0
BBX 5 7 0 0
BITMAP
70
88
88
78
08
10
60
ENDCHAR
STARTCHAR colon
ENCODING 58
SWIDTH 545 0
DWIDTH 6 0
BBX 1 5 2 0
BITMAP
80
00
00
00
80
ENDCHAR
STARTCHAR semicolon
ENCODING 59
SWIDTH 545 0
DWIDTH 6 0
BBX 2 7 2 -2
BITMAP
40
00
00
00
40
40
80
ENDCHAR
STARTCHAR less
ENCODING 60
SWIDTH 545 0
DWIDTH 6 0
BBX 3 5 1 0
BITMAP
20
40
80
40
20
ENDCHAR
STARTCHAR equal
ENCODING 61
SWIDTH 545 0
DWIDTH 6 0
BBX 5 3 0 1
BITMAP
F8
00
F8
ENDCHAR
STARTCHAR greater
ENCODING 62
SWIDTH 545 0
DWIDTH 6 0
BBX 3 5 1 0
BITMAP
80
40
20
40
80
ENDCHAR
STARTCHAR question
ENCODING 63
SWIDTH 545 0
DWIDTH 6 0
BBX 5 7 0 0
BITMAP
70
88
08
10
20
00
20
ENDCHAR
STARTCHAR at
ENCODING 64
SWIDTH 545 0
DWIDTH 6 0
BBX 5 8 0 -1
BITMAP
70
88
98
A8
A8
98
80
70
ENDCHAR
STARTCHAR A
ENCODING 65
SWIDTH 545 0
DWIDTH 6 0
BBX 6 7 0 0
BITMAP
60
20
50
50
F8
88
DC
ENDCHAR
STARTCHAR B
ENCODING 66
SWIDTH 545 0
DWIDTH 6 0
BBX 5 7 0 0
BITMAP
F0
48
48
70
48
48
F0
ENDCHAR
STARTCHAR C
ENCODING 67
SWIDTH 545 0
DWIDTH 6 0
BBX 5 7 0 0
BITMAP
38
48
80
80
80
48
30
ENDCHAR
STARTCHAR D
ENCODING 68
SWIDTH 545 0
DWIDTH 6 0
BBX 5 7 0 0
BITMAP
F0
48
48
48
48
48
F0
ENDCHAR
STARTCHAR E
ENCODING 69
SWIDTH 545 0
DWIDTH 6 0
BBX 5 7 0 0
BITMAP
F8
48
40
70
40
48
F8
ENDCHAR
STARTCHAR F
ENCODING 70
SWIDTH 545 0
DWIDTH 6 0
BBX 5 7 0 0
BITMAP
F8
48
40
70
40
40
E0
ENDCHAR
STARTCHAR G
ENCODING 71
SWIDTH 545 0
DWIDTH 6 0
BBX 6 7 0 0
BITMAP
70
88
80
BC
88
88
70
ENDCHAR
STARTCHAR H
ENCODING 72
SWIDTH 545 0
DWIDTH 6 0
BBX 6 7 0 0
BITMAP
EC
48
48
78
48
48
EC
ENDCHAR
STARTCHAR I
ENCODING 73
SWIDTH 545 0
DWIDTH 6 0
BBX 5 7 0 0
BITMAP
F8
20
20
20
20
20
F8
ENDCHAR
STARTCHAR J
ENCODING 74
SWIDTH 545 0
DWIDTH 6 0
BBX 5 7 0 0
BITMAP
78
10
10
10
90
90
60
ENDCHAR
STARTCHAR K
ENCODING 75
SWIDTH 545 0
DWIDTH 6 0
BBX 6 7 0 0
BITMAP
EC
48
50
60
50
48
EC
ENDCHAR
STARTCHAR L
ENCODING 76
SWIDTH 545 0
DWIDTH 6 0
BBX 5 7 0 0
BITMAP
E0
40
40
40
40
48
F8
ENDCHAR
STARTCHAR M
ENCODING 77
SWIDTH 545 0
DWIDTH 6 0
BBX 6 7 0 0
BITMAP
8C
D8
A8
88
88
88
DC
ENDCHAR
STARTCHAR N
ENCODING 78
SWIDTH 545 0
DWIDTH 6 0
BBX 6 7 0 0
BITMAP
DC
68
68
58
58
48
E8
ENDCHAR
STARTCHAR O
ENCODING 79
SWIDTH 545 0
DWIDTH 6 0
BBX 5 7 0 0
BITMAP
70
88
88
88
88
88
70
ENDCHAR
STARTCHAR P
ENCODING 80
SWIDTH 545 0
DWIDTH 6 0
BBX 5 7 0 0
BITMAP
F0
48
48
70
40
40
E0
ENDCHAR
STARTCHAR Q
ENCODING 81
SWIDTH 545 0
DWIDTH 6 0
BBX 5 8 0 -1
BITMAP
70
88
88
88
88
88
70
18
ENDCHAR
STARTCHAR R
ENCODING 82
SWIDTH 545 0
DWIDTH 6 0
BBX 6 7 0 0
BITMAP
F0
48
48
70
50
48
E4
ENDCHAR
STARTCHAR S
ENCODING 83
SWIDTH 545 0
DWIDTH 6 0
BBX 4 7 1 0
BITMAP
70
90
80
60
10
90
E0
ENDCHAR
STARTCHAR T
ENCODING 84
SWIDTH 545 0
DWIDTH 6 0
BBX 5 7 0 0
BITMAP
F8
A8
A8
20
20
20
70
ENDCHAR
STARTCHAR U
ENCODING 85
SWIDTH 545 0
DWIDTH 6 0
BBX 6 7 0 0
BITMAP
EC
48
48
48
48
48
30
ENDCHAR
STARTCHAR V
ENCODING 86
SWIDTH 545 0
DWIDTH 6 0
BBX 5 7 0 0
BITMAP
F8
50
50
50
20
20
20
ENDCHAR
STARTCHAR W
ENCODING 87
SWIDTH 545 0
DWIDTH 6 0
BBX 6 7 0 0
BITMAP
FC
A8
A8
A8
50
50
50
ENDCHAR
STARTCHAR X
ENCODING 88
SWIDTH 545 0
DWIDTH 6 0
BBX 5 7 0 0
BITMAP
D8
50
20
20
20
50
D8
ENDCHAR
STARTCHAR Y
ENCODING 89
SWIDTH 545 0
DWIDTH 6 0
BBX 5 7 0 0
BITMAP
D8
50
50
20
20
20
70
ENDCHAR
STARTCHAR Z
ENCODING 90
SWIDTH 545 0
DWIDTH 6 0
BBX 5 7 0 0
BITMAP
F8
88
10
20
40
88
F8
ENDCHAR
STARTCHAR bracketleft
ENCODING 91
SWIDTH 545 0
DWIDTH 6 0
BBX 2 9 2 -2
BITMAP
C0
80
80
80
80
80
80
80
C0
ENDCHAR
STARTCHAR backslash
ENCODING 92
SWIDTH 545 0
DWIDTH 6 0
BBX 4 7 1 0
BITMAP
80
80
40
40
20
20
10
ENDCHAR
STARTCHAR bracketright
ENCODING 93
SWIDTH 545 0
DWIDTH 6 0
BBX 2 9 2 -2
BITMAP
C0
40
40
40
40
40
40
40
C0
ENDCHAR
STARTCHAR asciicircum
ENCODING 94
SWIDTH 545 0
DWIDTH 6 0
BBX 5 3 1 4
BITMAP
20
50
88
ENDCHAR
STARTCHAR underscore
ENCODING 95
SWIDTH 545 0
DWIDTH 6 0
BBX 6 1 0 -2
BITMAP
FC
ENDCHAR
STARTCHAR grave
ENCODING 96
SWIDTH 545 0
DWIDTH 6 0
BBX 2 2 2 5
BITMAP
80
40
ENDCHAR
STARTCHAR a
ENCODING 97
SWIDTH 545 0
DWIDTH 6 0
BBX 5 5 0 0
BITMAP
60
90
70
90
78
ENDCHAR
STARTCHAR b
ENCODING 98
SWIDTH 545 0
DWIDTH 6 0
BBX 5 7 0 0
BITMAP
C0
40
70
48
48
48
F0
ENDCHAR
STARTCHAR c
ENCODING 99
SWIDTH 545 0
DWIDTH 6 0
BBX 5 5 0 0
BITMAP
70
88
80
88
70
ENDCHAR
STARTCHAR d
ENCODING 100
SWIDTH 545 0
DWIDTH 6 0
BBX 5 7 0 0
BITMAP
30
10
70
90
90
90
78
ENDCHAR
STARTCHAR e
ENCODING 101
SWIDTH 545 0
DWIDTH 6 0
BBX 5 5 0 0
BITMAP
70
88
F8
80
70
ENDCHAR
STARTCHAR f
ENCODING 102
SWIDTH 545 0
DWIDTH 6 0
BBX 5 7 0 0
BITMAP
18
20
78
20
20
20
F8
ENDCHAR
STARTCHAR g
ENCODING 103
SWIDTH 545 0
DWIDTH 6 0
BBX 6 7 0 -2
BITMAP
7C
88
88
88
78
08
70
ENDCHAR
STARTCHAR h
ENCODING 104
SWIDTH 545 0
DWIDTH 6 0
BBX 6 7 0 0
BITMAP
C0
40
70
48
48
48
FC
ENDCHAR
STARTCHAR i
ENCODING 105
SWIDTH 545 0
DWIDTH 6 0
BBX 5 7 0 0
BITMAP
20
00
E0
20
20
20
F8
ENDCHAR
STARTCHAR j
ENCODING 106
SWIDTH 545 0
DWIDTH 6 0
BBX 3 9 1 -2
BITMAP
20
00
E0
20
20
20
20
20
C0
ENDCHAR
STARTCHAR k
ENCODING 107
SWIDTH 545 0
DWIDTH 6 0
BBX 5 7 0 0
BITMAP
C0
40
58
50
60
50
D8
ENDCHAR
STARTCHAR l
ENCODING 108
SWIDTH 545 0
DWIDTH 6 0
BBX 5 7 0 0
BITMAP
E0
20
20
20
20
20
F8
ENDCHAR
STARTCHAR m
ENCODING 109
SWIDTH 545 0
DWIDTH 6 0
BBX 5 5 0 0
BITMAP
D0
A8
A8
A8
A8
ENDCHAR
STARTCHAR n
ENCODING 110
SWIDTH 545 0
DWIDTH 6 0
BBX 6 5 0 0
BITMAP
F0
48
48
48
EC
ENDCHAR
STARTCHAR o
ENCODING 111
SWIDTH 545 0
DWIDTH 6 0
BBX 5 5 0 0
BITMAP
70
88
88
88
70
ENDCHAR
STARTCHAR p
ENCODING 112
SWIDTH 545 0
DWIDTH 6 0
BBX 5 7 0 -2
BITMAP
F0
48
48
48
70
40
E0
ENDCHAR
STARTCHAR q
ENCODING 113
SWIDTH 545 0
DWIDTH 6 0
BBX 5 7 0 -2
BITMAP
78
90
90
90
70
10
38
ENDCHAR
STARTCHAR r
ENCODING 114
SWIDTH 545 0
DWIDTH 6 0
BBX 5 5 0 0
BITMAP
D8
60
40
40
E0
ENDCHAR
STARTCHAR s
ENCODING 115
SWIDTH 545 0
DWIDTH 6 0
BBX 5 5 0 0
BITMAP
78
80
70
08
F0
ENDCHAR
STARTCHAR t
ENCODING 116
SWIDTH 545 0
DWIDTH 6 0
BBX 5 7 0 0
BITMAP
40
40
F0
40
40
48
30
ENDCHAR
STARTCHAR u
ENCODING 117
SWIDTH 545 0
DWIDTH 6 0
BBX 6 5 0 0
BITMAP
D8
48
48
48
34
ENDCHAR
STARTCHAR v
ENCODING 118
SWIDTH 545 0
DWIDTH 6 0
BBX 5 5 0 0
BITMAP
D8
50
50
20
20
ENDCHAR
STARTCHAR w
ENCODING 119
SWIDTH 545 0
DWIDTH 6 0
BBX 6 5 0 0
BITMAP
FC
A8
A8
50
50
ENDCHAR
STARTCHAR x
ENCODING 120
SWIDTH 545 0
DWIDTH 6 0
BBX 5 5 0 0
BITMAP
D8
50
20
50
D8
ENDCHAR
STARTCHAR y
ENCODING 121
SWIDTH 545 0
DWIDTH 6 0
BBX 5 7 0 -2
BITMAP
D8
50
50
20
20
40
E0
ENDCHAR
STARTCHAR z
ENCODING 122
SWIDTH 545 0
DWIDTH 6 0
BBX 5 5 0 0
BITMAP
F8
90
20
48
F8
ENDCHAR
STARTCHAR braceleft
ENCODING 123
SWIDTH 545 0
DWIDTH 6 0
BBX 3 9 1 -2
BITMAP
20
40
40
40
80
40
40
40
20
ENDCHAR
STARTCHAR bar
ENCODING 124
SWIDTH 545 0
DWIDTH 6 0
BBX 1 9 2 -2
BITMAP
80
80
80
80
80
80
80
80
80
ENDCHAR
STARTCHAR braceright
ENCODING 125
SWIDTH 545 0
DWIDTH 6 0
BBX 3 9 1 -2
BITMAP
80
40
40
40
20
40
40
40
80
ENDCHAR
STARTCHAR asciitilde
ENCODING 126
SWIDTH 545 0
DWIDTH 6 0
BBX 5 2 0 5
BITMAP
68
B0
ENDCHAR
STARTCHAR Adieresis
ENCODING 128
SWIDTH 545 0
DWIDTH 6 0
BBX 6 9 0 0
BITMAP
50
00
60
20
50
50
F8
88
DC
ENDCHAR
STARTCHAR Aring
ENCODING 129
SWIDTH 545 0
DWIDTH 6 0
BBX 6 9 0 0
BITMAP
78
00
60
20
50
50
F8
88
DC
ENDCHAR
STARTCHAR Ccedilla
ENCODING 130
SWIDTH 545 0
DWIDTH 6 0
BBX 5 7 0 0
BITMAP
F0
00
60
90
70
90
78
ENDCHAR
STARTCHAR Eacute
ENCODING 131
SWIDTH 545 0
DWIDTH 6 0
BBX 5 9 0 0
BITMAP
10
20
F8
48
40
70
40
48
F8
ENDCHAR
STARTCHAR Ntilde
ENCODING 132
SWIDTH 545 0
DWIDTH 6 0
BBX 6 9 0 -2
BITMAP
60
20
50
50
F8
88
DC
08
04
ENDCHAR
STARTCHAR Odieresis
ENCODING 133
SWIDTH 545 0
DWIDTH 6 0
BBX 5 9 0 0
BITMAP
50
00
70
88
88
88
88
88
70
ENDCHAR
STARTCHAR Udieresis
ENCODING 134
SWIDTH 545 0
DWIDTH 6 0
BBX 6 9 0 0
BITMAP
48
00
EC
48
48
48
48
48
30
ENDCHAR
STARTCHAR aacute
ENCODING 135
SWIDTH 545 0
DWIDTH 6 0
BBX 5 8 0 0
BITMAP
10
20
00
60
90
70
90
78
ENDCHAR
STARTCHAR agrave
ENCODING 136
SWIDTH 545 0
DWIDTH 6 0
BBX 5 7 0 -2
BITMAP
60
90
70
90
78
10
08
ENDCHAR
STARTCHAR acircumflex
ENCODING 137
SWIDTH 545 0
DWIDTH 6 0
BBX 5 9 0 0
BITMAP
50
20
38
48
80
80
80
48
30
ENDCHAR
STARTCHAR adieresis
ENCODING 138
SWIDTH 545 0
DWIDTH 6 0
BBX 5 7 0 0
BITMAP
90
00
60
90
70
90
78
ENDCHAR
STARTCHAR atilde
ENCODING 139
SWIDTH 545 0
DWIDTH 6 0
BBX 5 8 0 0
BITMAP
50
20
00
70
88
80
88
70
ENDCHAR
STARTCHAR aring
ENCODING 140
SWIDTH 545 0
DWIDTH 6 0
BBX 5 9 0 0
BITMAP
10
20
38
48
80
80
80
48
30
ENDCHAR
STARTCHAR ccedilla
ENCODING 141
SWIDTH 545 0
DWIDTH 6 0
BBX 5 8 0 0
BITMAP
10
20
00
70
88
80
88
70
ENDCHAR
STARTCHAR eacute
ENCODING 142
SWIDTH 545 0
DWIDTH 6 0
BBX 5 8 0 0
BITMAP
10
20
00
70
88
F8
80
70
ENDCHAR
STARTCHAR egrave
ENCODING 143
SWIDTH 545 0
DWIDTH 6 0
BBX 5 9 0 0
BITMAP
10
20
F8
88
10
20
40
88
F8
ENDCHAR
STARTCHAR ecircumflex
ENCODING 144
SWIDTH 545 0
DWIDTH 6 0
BBX 5 8 0 0
BITMAP
10
20
00
F8
90
20
48
F8
ENDCHAR
STARTCHAR edieresis
ENCODING 145
SWIDTH 545 0
DWIDTH 6 0
BBX 5 9 0 0
BITMAP
50
20
F0
48
48
48
48
48
F0
ENDCHAR
STARTCHAR iacute
ENCODING 146
SWIDTH 545 0
DWIDTH 6 0
BBX 5 8 0 0
BITMAP
10
20
00
E0
20
20
20
F8
ENDCHAR
STARTCHAR igrave
ENCODING 147
SWIDTH 545 0
DWIDTH 6 0
BBX 6 8 0 0
BITMAP
04
34
18
70
90
90
90
78
ENDCHAR
STARTCHAR icircumflex
ENCODING 148
SWIDTH 545 0
DWIDTH 6 0
BBX 5 9 0 0
BITMAP
78
00
F8
48
40
70
40
48
F8
ENDCHAR
STARTCHAR idieresis
ENCODING 149
SWIDTH 545 0
DWIDTH 6 0
BBX 5 7 0 0
BITMAP
78
00
70
88
F8
80
70
ENDCHAR
STARTCHAR ntilde
ENCODING 150
SWIDTH 545 0
DWIDTH 6 0
BBX 5 9 0 0
BITMAP
20
00
F8
48
40
70
40
48
F8
ENDCHAR
STARTCHAR oacute
ENCODING 151
SWIDTH 545 0
DWIDTH 6 0
BBX 5 8 0 0
BITMAP
10
20
00
70
88
88
88
70
ENDCHAR
STARTCHAR ograve
ENCODING 152
SWIDTH 545 0
DWIDTH 6 0
BBX 5 7 0 0
BITMAP
20
00
70
88
F8
80
70
ENDCHAR
STARTCHAR ocircumflex
ENCODING 153
SWIDTH 545 0
DWIDTH 6 0
BBX 5 8 0 0
BITMAP
20
50
00
70
88
88
88
70
ENDCHAR
STARTCHAR odieresis
ENCODING 154
SWIDTH 545 0
DWIDTH 6 0
BBX 5 7 0 0
BITMAP
50
00
70
88
88
88
70
ENDCHAR
STARTCHAR otilde
ENCODING 155
SWIDTH 545 0
DWIDTH 6 0
BBX 5 8 0 0
BITMAP
68
B0
00
70
88
88
88
70
ENDCHAR
STARTCHAR uacute
ENCODING 156
SWIDTH 545 0
DWIDTH 6 0
BBX 6 8 0 0
BITMAP
10
20
00
D8
48
48
48
34
ENDCHAR
STARTCHAR ugrave
ENCODING 157
SWIDTH 545 0
DWIDTH 6 0
BBX 5 9 0 0
BITMAP
50
20
F8
48
40
70
40
48
F8
ENDCHAR
STARTCHAR ucircumflex
ENCODING 158
SWIDTH 545 0
DWIDTH 6 0
BBX 5 8 0 0
BITMAP
50
20
00
70
88
F8
80
70
ENDCHAR
STARTCHAR udieresis
ENCODING 159
SWIDTH 545 0
DWIDTH 6 0
BBX 6 7 0 0
BITMAP
50
00
D8
48
48
48
34
ENDCHAR
STARTCHAR dagger
ENCODING 160
SWIDTH 545 0
DWIDTH 6 0
BBX 5 9 0 -2
BITMAP
20
20
F8
20
20
20
20
20
20
ENDCHAR
STARTCHAR degree
ENCODING 161
SWIDTH 545 0
DWIDTH 6 0
BBX 4 4 1 4
BITMAP
60
90
90
60
ENDCHAR
STARTCHAR cent
ENCODING 162
SWIDTH 545 0
DWIDTH 6 0
BBX 5 9 0 -2
BITMAP
F8
48
40
70
40
48
F8
10
08
ENDCHAR
STARTCHAR sterling
ENCODING 163
SWIDTH 545 0
DWIDTH 6 0
BBX 5 7 0 0
BITMAP
30
40
40
E0
40
48
F0
ENDCHAR
STARTCHAR section
ENCODING 164
SWIDTH 545 0
DWIDTH 6 0
BBX 5 9 0 -1
BITMAP
70
88
80
70
88
70
08
88
70
ENDCHAR
STARTCHAR bullet
ENCODING 165
SWIDTH 545 0
DWIDTH 6 0
BBX 4 4 0 1
BITMAP
60
F0
F0
60
ENDCHAR
STARTCHAR paragraph
ENCODING 166
SWIDTH 545 0
DWIDTH 6 0
BBX 6 9 0 -2
BITMAP
7C
A8
A8
A8
68
28
28
28
6C
ENDCHAR
STARTCHAR germandbls
ENCODING 167
SWIDTH 545 0
DWIDTH 6 0
BBX 5 7 0 0
BITMAP
30
48
48
50
48
48
D0
ENDCHAR
STARTCHAR registered
ENCODING 168
SWIDTH 727 0
DWIDTH 8 0
BBX 7 7 0 0
BITMAP
38
44
BA
B2
AA
44
38
ENDCHAR
STARTCHAR copyright
ENCODING 169
SWIDTH 727 0
DWIDTH 8 0
BBX 7 7 0 0
BITMAP
38
44
9A
A2
9A
44
38
ENDCHAR
STARTCHAR trademark
ENCODING 170
SWIDTH 818 0
DWIDTH 9 0
BBX 8 4 0 3
BITMAP
F1
5B
55
51
ENDCHAR
STARTCHAR acute
ENCODING 171
SWIDTH 545 0
DWIDTH 6 0
BBX 5 7 0 -2
BITMAP
70
88
F8
80
70
20
10
ENDCHAR
STARTCHAR dieresis
ENCODING 172
SWIDTH 545 0
DWIDTH 6 0
BBX 4 1 1 8
BITMAP
90
ENDCHAR
STARTCHAR notequal
ENCODING 173
SWIDTH 454 0
DWIDTH 5 0
BBX 5 5 0 0
BITMAP
10
F8
20
F8
40
ENDCHAR
STARTCHAR AE
ENCODING 174
SWIDTH 545 0
DWIDTH 6 0
BBX 6 10 0 -2
BITMAP
10
20
00
7C
88
88
88
78
08
70
ENDCHAR
STARTCHAR Oslash
ENCODING 175
SWIDTH 545 0
DWIDTH 6 0
BBX 5 9 0 -2
BITMAP
F8
20
20
20
20
20
F8
20
10
ENDCHAR
STARTCHAR infinity
ENCODING 176
SWIDTH 545 0
DWIDTH 6 0
BBX 5 9 0 -2
BITMAP
20
00
E0
20
20
20
F8
20
10
ENDCHAR
STARTCHAR plusminus
ENCODING 177
SWIDTH 545 0
DWIDTH 6 0
BBX 5 9 0 0
BITMAP
70
00
F8
20
20
20
20
20
F8
ENDCHAR
STARTCHAR lessequal
ENCODING 178
SWIDTH 545 0
DWIDTH 6 0
BBX 5 6 0 0
BITMAP
10
20
40
20
10
F8
ENDCHAR
STARTCHAR greaterequal
ENCODING 179
SWIDTH 545 0
DWIDTH 6 0
BBX 5 6 0 0
BITMAP
40
20
10
20
40
F8
ENDCHAR
STARTCHAR yen
ENCODING 180
SWIDTH 545 0
DWIDTH 6 0
BBX 5 7 0 0
BITMAP
F0
00
E0
20
20
20
F8
ENDCHAR
STARTCHAR mu
ENCODING 181
SWIDTH 545 0
DWIDTH 6 0
BBX 6 9 0 -2
BITMAP
EC
48
50
60
50
48
CC
10
20
ENDCHAR
STARTCHAR partialdiff
ENCODING 182
SWIDTH 454 0
DWIDTH 5 0
BBX 4 7 0 0
BITMAP
60
10
70
90
90
90
60
ENDCHAR
STARTCHAR summation
ENCODING 183
SWIDTH 636 0
DWIDTH 7 0
BBX 6 8 0 -1
BITMAP
FC
44
20
10
10
24
44
FC
ENDCHAR
STARTCHAR product
ENCODING 184
SWIDTH 545 0
DWIDTH 6 0
BBX 5 7 0 0
BITMAP
E0
30
60
20
20
20
F8
ENDCHAR
STARTCHAR pi
ENCODING 185
SWIDTH 545 0
DWIDTH 6 0
BBX 5 9 0 -2
BITMAP
E0
40
40
40
40
48
F8
20
40
ENDCHAR
STARTCHAR integral
ENCODING 186
SWIDTH 545 0
DWIDTH 6 0
BBX 5 9 0 -2
BITMAP
E0
20
20
20
20
20
F8
20
40
ENDCHAR
STARTCHAR ordfeminine
ENCODING 187
SWIDTH 545 0
DWIDTH 6 0
BBX 5 8 0 0
BITMAP
08
E8
50
40
40
40
48
F8
ENDCHAR
STARTCHAR ordmasculine
ENCODING 188
SWIDTH 545 0
DWIDTH 6 0
BBX 5 8 0 0
BITMAP
08
E8
30
20
20
20
20
F8
ENDCHAR
STARTCHAR Omega
ENCODING 189
SWIDTH 545 0
DWIDTH 6 0
BBX 5 9 0 0
BITMAP
20
40
E0
40
40
40
40
48
F8
ENDCHAR
STARTCHAR ae
ENCODING 190
SWIDTH 545 0
DWIDTH 6 0
BBX 5 9 0 0
BITMAP
10
20
E0
20
20
20
20
20
F8
ENDCHAR
STARTCHAR oslash
ENCODING 191
SWIDTH 545 0
DWIDTH 6 0
BBX 6 9 0 -2
BITMAP
DC
68
68
58
58
48
C8
20
40
ENDCHAR
STARTCHAR questiondown
ENCODING 192
SWIDTH 545 0
DWIDTH 6 0
BBX 6 7 0 -2
BITMAP
F0
48
48
48
CC
20
40
ENDCHAR
STARTCHAR exclamdown
ENCODING 193
SWIDTH 545 0
DWIDTH 6 0
BBX 6 9 0 0
BITMAP
10
20
DC
68
68
58
58
48
E8
ENDCHAR
STARTCHAR logicalnot
ENCODING 194
SWIDTH 545 0
DWIDTH 6 0
BBX 5 3 0 0
BITMAP
F8
08
08
ENDCHAR
STARTCHAR radical
ENCODING 195
SWIDTH 454 0
DWIDTH 5 0
BBX 5 7 0 0
BITMAP
08
08
08
D0
50
20
20
ENDCHAR
STARTCHAR florin
ENCODING 196
SWIDTH 545 0
DWIDTH 6 0
BBX 6 8 0 0
BITMAP
10
20
00
F0
48
48
48
EC
ENDCHAR
STARTCHAR approxequal
ENCODING 197
SWIDTH 545 0
DWIDTH 6 0
BBX 6 9 0 0
BITMAP
50
20
DC
68
68
58
58
48
E8
ENDCHAR
STARTCHAR Delta
ENCODING 198
SWIDTH 545 0
DWIDTH 6 0
BBX 5 7 0 0
BITMAP
20
20
20
50
50
88
F8
ENDCHAR
STARTCHAR guillemotleft
ENCODING 199
SWIDTH 545 0
DWIDTH 6 0
BBX 5 5 0 0
BITMAP
28
50
A0
50
28
ENDCHAR
STARTCHAR guillemotright
ENCODING 200
SWIDTH 545 0
DWIDTH 6 0
BBX 5 5 0 0
BITMAP
A0
50
28
50
A0
ENDCHAR
STARTCHAR ellipsis
ENCODING 201
SWIDTH 545 0
DWIDTH 6 0
BBX 5 1 0 0
BITMAP
A8
ENDCHAR
STARTCHAR nbspace
ENCODING 202
SWIDTH 545 0
DWIDTH 6 0
BBX 0 0 0 -2
BITMAP
ENDCHAR
STARTCHAR Agrave
ENCODING 203
SWIDTH 545 0
DWIDTH 6 0
BBX 6 8 0 0
BITMAP
50
20
00
F0
48
48
48
EC
ENDCHAR
STARTCHAR Atilde
ENCODING 204
SWIDTH 545 0
DWIDTH 6 0
BBX 5 9 0 0
BITMAP
28
50
70
88
88
88
88
88
70
ENDCHAR
STARTCHAR Otilde
ENCODING 205
SWIDTH 545 0
DWIDTH 6 0
BBX 5 9 0 0
BITMAP
68
B0
70
88
88
88
88
88
70
ENDCHAR
STARTCHAR OE
ENCODING 206
SWIDTH 545 0
DWIDTH 6 0
BBX 5 8 0 0
BITMAP
28
50
00
70
88
88
88
70
ENDCHAR
STARTCHAR oe
ENCODING 207
SWIDTH 545 0
DWIDTH 6 0
BBX 5 9 0 0
BITMAP
70
00
70
88
88
88
88
88
70
ENDCHAR
STARTCHAR endash
ENCODING 208
SWIDTH 545 0
DWIDTH 6 0
BBX 4 1 0 3
BITMAP
F0
ENDCHAR
STARTCHAR emdash
ENCODING 209
SWIDTH 545 0
DWIDTH 6 0
BBX 6 1 0 3
BITMAP
FC
ENDCHAR
STARTCHAR quotedblleft
ENCODING 210
SWIDTH 545 0
DWIDTH 6 0
BBX 5 3 0 4
BITMAP
48
90
90
ENDCHAR
STARTCHAR quotedblright
ENCODING 211
SWIDTH 545 0
DWIDTH 6 0
BBX 5 3 0 4
BITMAP
48
48
90
ENDCHAR
STARTCHAR quoteleft
ENCODING 212
SWIDTH 545 0
DWIDTH 6 0
BBX 2 3 1 4
BITMAP
40
80
80
ENDCHAR
STARTCHAR quoteright
ENCODING 213
SWIDTH 545 0
DWIDTH 6 0
BBX 2 3 1 4
BITMAP
40
40
80
ENDCHAR
STARTCHAR divide
ENCODING 214
SWIDTH 545 0
DWIDTH 6 0
BBX 5 5 0 0
BITMAP
20
00
F8
00
20
ENDCHAR
STARTCHAR lozenge
ENCODING 215
SWIDTH 454 0
DWIDTH 5 0
BBX 5 7 0 0
BITMAP
20
20
50
88
50
20
20
ENDCHAR
STARTCHAR ydieresis
ENCODING 216
SWIDTH 545 0
DWIDTH 6 0
BBX 5 7 0 0
BITMAP
70
00
70
88
88
88
70
ENDCHAR
STARTCHAR Ydieresis
ENCODING 217
SWIDTH 545 0
DWIDTH 6 0
BBX 6 9 0 0
BITMAP
10
20
F0
48
48
70
50
48
E4
ENDCHAR
STARTCHAR fraction
ENCODING 218
SWIDTH 545 0
DWIDTH 6 0
BBX 5 8 0 0
BITMAP
10
20
00
D8
60
40
40
E0
ENDCHAR
STARTCHAR currency
ENCODING 219
SWIDTH 545 0
DWIDTH 6 0
BBX 6 9 0 0
BITMAP
50
20
F0
48
48
70
50
48
E4
ENDCHAR
STARTCHAR guilsinglleft
ENCODING 220
SWIDTH 545 0
DWIDTH 6 0
BBX 5 9 1 -1
BITMAP
08
10
20
40
80
40
20
10
08
ENDCHAR
STARTCHAR guilsinglright
ENCODING 221
SWIDTH 545 0
DWIDTH 6 0
BBX 5 9 0 -1
BITMAP
80
40
20
10
08
10
20
40
80
ENDCHAR
STARTCHAR fi
ENCODING 222
SWIDTH 545 0
DWIDTH 6 0
BBX 5 8 0 0
BITMAP
50
20
00
D8
60
40
40
E0
ENDCHAR
STARTCHAR fl
ENCODING 223
SWIDTH 545 0
DWIDTH 6 0
BBX 6 9 0 -2
BITMAP
F0
48
48
70
50
48
C4
10
20
ENDCHAR
STARTCHAR daggerdbl
ENCODING 224
SWIDTH 545 0
DWIDTH 6 0
BBX 5 7 0 -2
BITMAP
D8
60
40
40
E0
40
80
ENDCHAR
STARTCHAR periodcentered
ENCODING 225
SWIDTH 545 0
DWIDTH 6 0
BBX 4 9 1 0
BITMAP
50
20
70
90
80
60
10
90
E0
ENDCHAR
STARTCHAR quotesinglbase
ENCODING 226
SWIDTH 545 0
DWIDTH 6 0
BBX 2 3 2 -2
BITMAP
40
40
80
ENDCHAR
STARTCHAR quotedblbase
ENCODING 227
SWIDTH 545 0
DWIDTH 6 0
BBX 5 3 0 -2
BITMAP
48
48
90
ENDCHAR
STARTCHAR perthousand
ENCODING 228
SWIDTH 545 0
DWIDTH 6 0
BBX 5 8 0 0
BITMAP
50
20
00
78
80
70
08
F0
ENDCHAR
STARTCHAR Acircumflex
ENCODING 229
SWIDTH 545 0
DWIDTH 6 0
BBX 4 9 1 0
BITMAP
10
20
70
90
80
60
10
90
E0
ENDCHAR
STARTCHAR Ecircumflex
ENCODING 230
SWIDTH 545 0
DWIDTH 6 0
BBX 5 8 0 0
BITMAP
10
20
00
78
80
70
08
F0
ENDCHAR
STARTCHAR Aacute
ENCODING 231
SWIDTH 545 0
DWIDTH 6 0
BBX 6 9 0 0
BITMAP
10
20
60
20
50
50
F8
88
DC
ENDCHAR
STARTCHAR Edieresis
ENCODING 232
SWIDTH 545 0
DWIDTH 6 0
BBX 5 9 0 0
BITMAP
50
20
F8
A8
A8
20
20
20
70
ENDCHAR
STARTCHAR Egrave
ENCODING 233
SWIDTH 545 0
DWIDTH 6 0
BBX 5 9 0 0
BITMAP
10
10
60
40
F0
40
40
48
30
ENDCHAR
STARTCHAR Iacute
ENCODING 234
SWIDTH 545 0
DWIDTH 6 0
BBX 5 9 0 0
BITMAP
10
20
F8
20
20
20
20
20
F8
ENDCHAR
STARTCHAR Icircumflex
ENCODING 235
SWIDTH 545 0
DWIDTH 6 0
BBX 5 9 0 0
BITMAP
50
20
F8
88
10
20
40
88
F8
ENDCHAR
STARTCHAR Idieresis
ENCODING 236
SWIDTH 545 0
DWIDTH 6 0
BBX 5 8 0 0
BITMAP
50
20
00
F8
90
20
48
F8
ENDCHAR
STARTCHAR Igrave
ENCODING 237
SWIDTH 545 0
DWIDTH 6 0
BBX 6 9 0 0
BITMAP
78
00
EC
48
48
48
48
48
30
ENDCHAR
STARTCHAR Oacute
ENCODING 238
SWIDTH 545 0
DWIDTH 6 0
BBX 5 9 0 0
BITMAP
10
20
70
88
88
88
88
88
70
ENDCHAR
STARTCHAR Ocircumflex
ENCODING 239
SWIDTH 545 0
DWIDTH 6 0
BBX 5 9 0 0
BITMAP
20
50
70
88
88
88
88
88
70
ENDCHAR
STARTCHAR apple
ENCODING 240
SWIDTH 545 0
DWIDTH 6 0
BBX 6 7 0 0
BITMAP
78
00
D8
48
48
48
34
ENDCHAR
STARTCHAR Ograve
ENCODING 241
SWIDTH 545 0
DWIDTH 6 0
BBX 6 9 0 0
BITMAP
10
28
DC
48
48
48
48
48
30
ENDCHAR
STARTCHAR Uacute
ENCODING 242
SWIDTH 545 0
DWIDTH 6 0
BBX 6 9 0 0
BITMAP
10
20
DC
88
88
88
88
88
70
ENDCHAR
STARTCHAR Ucircumflex
ENCODING 243
SWIDTH 545 0
DWIDTH 6 0
BBX 6 8 0 0
BITMAP
20
50
20
D8
48
48
48
34
ENDCHAR
STARTCHAR Ugrave
ENCODING 244
SWIDTH 545 0
DWIDTH 6 0
BBX 6 9 0 0
BITMAP
24
48
EC
48
48
48
48
48
30
ENDCHAR
STARTCHAR dotlessi
ENCODING 245
SWIDTH 545 0
DWIDTH 6 0
BBX 6 8 0 0
BITMAP
14
28
00
D8
48
48
48
34
ENDCHAR
STARTCHAR circumflex
ENCODING 246
SWIDTH 545 0
DWIDTH 6 0
BBX 6 9 0 -2
BITMAP
EC
48
48
48
48
48
30
20
10
ENDCHAR
STARTCHAR tilde
ENCODING 247
SWIDTH 545 0
DWIDTH 6 0
BBX 6 7 0 -2
BITMAP
D8
48
48
48
34
20
10
ENDCHAR
STARTCHAR macron
ENCODING 248
SWIDTH 545 0
DWIDTH 6 0
BBX 5 9 0 0
BITMAP
10
20
D8
50
50
20
20
20
70
ENDCHAR
STARTCHAR breve
ENCODING 249
SWIDTH 545 0
DWIDTH 6 0
BBX 5 10 0 -2
BITMAP
10
20
00
D8
50
50
20
20
40
E0
ENDCHAR
STARTCHAR dotaccent
ENCODING 250
SWIDTH 545 0
DWIDTH 6 0
BBX 5 9 0 -2
BITMAP
C0
40
58
50
60
50
D8
20
40
ENDCHAR
STARTCHAR ring
ENCODING 251
SWIDTH 545 0
DWIDTH 6 0
BBX 5 9 0 0
BITMAP
20
00
F8
88
10
20
40
88
F8
ENDCHAR
STARTCHAR cedilla
ENCODING 252
SWIDTH 545 0
DWIDTH 6 0
BBX 5 7 0 0
BITMAP
E0
40
60
C0
40
48
F8
ENDCHAR
STARTCHAR hungarumlaut
ENCODING 253
SWIDTH 545 0
DWIDTH 6 0
BBX 5 7 0 0
BITMAP
20
00
F8
90
20
48
F8
ENDCHAR
STARTCHAR ogonek
ENCODING 254
SWIDTH 545 0
DWIDTH 6 0
BBX 6 9 0 -2
BITMAP
70
88
80
BC
88
88
70
20
40
ENDCHAR
STARTCHAR caron
ENCODING 255
SWIDTH 454 0
DWIDTH 5 0
BBX 3 2 1 7
BITMAP
A0
40
ENDCHAR
ENDFONT
